<?xml version="1.0" encoding="UTF-8" standalone="no"?>
<!-- Created with Inkscape (http://www.inkscape.org/) -->

<svg
   xmlns:dc="http://purl.org/dc/elements/1.1/"
   xmlns:cc="http://creativecommons.org/ns#"
   xmlns:rdf="http://www.w3.org/1999/02/22-rdf-syntax-ns#"
   xmlns:svg="http://www.w3.org/2000/svg"
   xmlns="http://www.w3.org/2000/svg"
   xmlns:sodipodi="http://sodipodi.sourceforge.net/DTD/sodipodi-0.dtd"
   xmlns:inkscape="http://www.inkscape.org/namespaces/inkscape"
   width="1070"
   height="510"
   viewBox="0 0 283.10415 134.93749"
   version="1.1"
   id="svg8"
   inkscape:version="0.92.1 unknown"
   sodipodi:docname="1.svg"
   inkscape:export-filename="/home/mz/Dev/studium/game/Blender/circle_arrow.png"
   inkscape:export-xdpi="87.272728"
   inkscape:export-ydpi="87.272728">
  <defs
     id="defs2" />
  <sodipodi:namedview
     id="base"
     pagecolor="#ffffff"
     bordercolor="#666666"
     borderopacity="1.0"
     inkscape:pageopacity="0.0"
     inkscape:pageshadow="2"
     inkscape:zoom="0.15405883"
     inkscape:cx="2819.0006"
     inkscape:cy="1131.3716"
     inkscape:document-units="px"
     inkscape:current-layer="layer1"
     showgrid="false"
     inkscape:window-width="1539"
     inkscape:window-height="876"
     inkscape:window-x="61"
     inkscape:window-y="24"
     inkscape:window-maximized="1"
     units="px"
     showguides="false"
     inkscape:snap-nodes="true"
     inkscape:object-nodes="false"
     inkscape:snap-object-midpoints="true"
     inkscape:object-paths="false"
     inkscape:snap-intersection-paths="false"
     inkscape:snap-smooth-nodes="false"
     inkscape:snap-center="true"
     inkscape:snap-others="false"
     inkscape:snap-midpoints="false" />
  <metadata
     id="metadata5">
    <rdf:RDF>
      <cc:Work
         rdf:about="">
        <dc:format>image/svg+xml</dc:format>
        <dc:type
           rdf:resource="http://purl.org/dc/dcmitype/StillImage" />
        <dc:title />
      </cc:Work>
    </rdf:RDF>
  </metadata>
  <g
     inkscape:label="Ebene 1"
     inkscape:groupmode="layer"
     id="layer1"
     transform="translate(0,-162.06249)">
    <g
       id="g5087"
       transform="matrix(1.1311732,0,0,1.1311732,757.85432,-644.14222)"
       style="stroke-width:0.88403791">
      <path
         sodipodi:nodetypes="cccccccccccccccccccccccc"
         inkscape:connector-curvature="0"
         id="path6399"
         d="m -578.78293,779.89772 12.61566,-24.35124 5.08286,-13.12707 -13.99623,-8.43495 -8.32593,16.18956 15.16145,9.76218 -6.62051,15.82555 -16.86742,-4.76062 8.11833,-17.21142 -33.48798,-14.07833 -5.39386,17.42479 -16.38278,31.56789 28.91511,16.47981 -5.3348,17.25329 16.26204,4.88947 7.93993,-13.04507 -16.54781,-11.16841 6.51323,-12.79027 -27.1874,-17.82073 6.73852,-15.09073 26.70798,13.33577 -5.72993,17.45902 17.76652,3.68157 z"
         style="color:#000000;font-style:normal;font-variant:normal;font-weight:normal;font-stretch:normal;font-size:medium;line-height:normal;font-family:sans-serif;font-variant-ligatures:normal;font-variant-position:normal;font-variant-caps:normal;font-variant-numeric:normal;font-variant-alternates:normal;font-feature-settings:normal;text-indent:0;text-align:start;text-decoration:none;text-decoration-line:none;text-decoration-style:solid;text-decoration-color:#000000;letter-spacing:normal;word-spacing:normal;text-transform:none;writing-mode:lr-tb;direction:ltr;text-orientation:mixed;dominant-baseline:auto;baseline-shift:baseline;text-anchor:start;white-space:normal;shape-padding:0;clip-rule:nonzero;display:inline;overflow:visible;visibility:visible;opacity:1;isolation:auto;mix-blend-mode:normal;color-interpolation:sRGB;color-interpolation-filters:linearRGB;solid-color:#000000;solid-opacity:1;vector-effect:none;fill:#000000;fill-opacity:1;fill-rule:nonzero;stroke:none;stroke-width:21.05115318;stroke-linecap:round;stroke-linejoin:miter;stroke-miterlimit:4;stroke-dasharray:none;stroke-dashoffset:0;stroke-opacity:1;color-rendering:auto;image-rendering:auto;shape-rendering:auto;text-rendering:auto;enable-background:accumulate" />
      <path
         sodipodi:nodetypes="sccccccccssssssssssssssssssssssssssssssssssssssssssssssssssssssssssssssssssssssssssssssssssssssssssssssssssssss"
         inkscape:connector-curvature="0"
         id="rect6429"
         d="m -618.5776,713.78049 c -5.5114,0.0661 -10.7479,3.22294 -13.23898,8.57105 l -30.99346,66.54013 c -3.46586,7.44084 -0.26609,16.2213 7.17475,19.68716 l 45.01018,20.96513 c 7.44084,3.46586 16.2213,0.26609 19.68717,-7.17475 l 30.99345,-66.54013 c 3.46586,-7.44084 0.26609,-16.2213 -7.17475,-19.68717 l -45.01017,-20.96512 c -2.09274,-0.97478 -4.29156,-1.42215 -6.44819,-1.3963 z m -0.13643,6.98614 c 3.65314,-10e-6 6.61459,2.96144 6.61459,6.61458 0,3.65313 -2.96145,6.61458 -6.61459,6.61458 -3.65313,0 -6.61458,-2.96145 -6.61458,-6.61458 0,-3.65314 2.96145,-6.61459 6.61458,-6.61458 z m 15.16962,6.87916 c 3.65313,0 6.61458,2.96145 6.61458,6.61459 0,3.65313 -2.96145,6.61458 -6.61458,6.61458 -3.65313,0 -6.61458,-2.96145 -6.61458,-6.61458 0,-3.65314 2.96145,-6.61459 6.61458,-6.61459 z m 15.1691,6.87917 c 3.65314,0 6.61458,2.96145 6.61458,6.61458 0,3.65314 -2.96144,6.61458 -6.61458,6.61458 -3.65313,0 -6.61458,-2.96144 -6.61458,-6.61458 0,-3.65313 2.96145,-6.61458 6.61458,-6.61458 z m -38.07778,3.37344 c 3.65314,0 6.61458,2.96145 6.61458,6.61458 0,3.65313 -2.96144,6.61458 -6.61458,6.61458 -3.65313,0 -6.61458,-2.96145 -6.61458,-6.61458 0,-3.65313 2.96145,-6.61458 6.61458,-6.61458 z m 53.2474,3.50572 c 3.65313,0 6.61458,2.96145 6.61458,6.61459 0,3.65313 -2.96145,6.61458 -6.61458,6.61458 -3.65314,0 -6.61459,-2.96145 -6.61459,-6.61458 0,-3.65314 2.96145,-6.61459 6.61459,-6.61459 z m -38.07778,3.37344 c 3.65313,0 6.61458,2.96145 6.61458,6.61459 0,3.65313 -2.96145,6.61458 -6.61458,6.61458 -3.65314,0 -6.61459,-2.96145 -6.61459,-6.61458 0,-3.65314 2.96145,-6.61459 6.61459,-6.61459 z m 15.1691,6.87917 c 3.65313,0 6.61458,2.96145 6.61458,6.61458 0,3.65314 -2.96145,6.61459 -6.61458,6.61459 -3.65313,0 -6.61458,-2.96145 -6.61458,-6.61459 0,-3.65313 2.96145,-6.61458 6.61458,-6.61458 z m -38.07778,3.37344 c 3.65313,0 6.61458,2.96145 6.61458,6.61458 0,3.65313 -2.96145,6.61458 -6.61458,6.61458 -3.65313,0 -6.61458,-2.96145 -6.61458,-6.61458 0,-3.65313 2.96145,-6.61458 6.61458,-6.61458 z m 53.24739,3.50573 c 3.65314,0 6.61459,2.96145 6.61459,6.61458 0,3.65313 -2.96145,6.61458 -6.61459,6.61458 -3.65313,0 -6.61458,-2.96145 -6.61458,-6.61458 0,-3.65313 2.96145,-6.61458 6.61458,-6.61458 z m -38.07778,3.37343 c 3.65314,0 6.61459,2.96145 6.61459,6.61459 0,3.65313 -2.96145,6.61458 -6.61459,6.61458 -3.65313,0 -6.61458,-2.96145 -6.61458,-6.61458 0,-3.65314 2.96145,-6.61459 6.61458,-6.61459 z m 15.16911,6.87917 c 3.65313,0 6.61458,2.96145 6.61458,6.61458 0,3.65314 -2.96145,6.61459 -6.61458,6.61459 -3.65314,0 -6.61459,-2.96145 -6.61459,-6.61459 0,-3.65313 2.96145,-6.61458 6.61459,-6.61458 z m -38.07778,3.37344 c 3.65313,0 6.61458,2.96145 6.61458,6.61458 0,3.65313 -2.96145,6.61458 -6.61458,6.61458 -3.65314,0 -6.61459,-2.96145 -6.61459,-6.61458 0,-3.65313 2.96145,-6.61458 6.61459,-6.61458 z m 53.24739,3.50573 c 3.65314,0 6.61459,2.96145 6.61459,6.61458 0,3.65313 -2.96145,6.61458 -6.61459,6.61458 -3.65313,0 -6.61458,-2.96145 -6.61458,-6.61458 0,-3.65313 2.96145,-6.61458 6.61458,-6.61458 z m -38.07778,3.37343 c 3.65314,0 6.61459,2.96145 6.61459,6.61459 0,3.65313 -2.96145,6.61458 -6.61459,6.61458 -3.65313,0 -6.61458,-2.96145 -6.61458,-6.61458 0,-3.65314 2.96145,-6.61459 6.61458,-6.61459 z m 15.1691,6.87917 c 3.65314,0 6.61459,2.96145 6.61459,6.61458 0,3.65314 -2.96145,6.61459 -6.61459,6.61459 -3.65313,0 -6.61458,-2.96145 -6.61458,-6.61459 0,-3.65313 2.96145,-6.61458 6.61458,-6.61458 z m -38.07778,3.37344 c 3.65314,0 6.61459,2.96145 6.61459,6.61458 0,3.65313 -2.96145,6.61458 -6.61459,6.61458 -3.65313,0 -6.61458,-2.96145 -6.61458,-6.61458 0,-3.65313 2.96145,-6.61458 6.61458,-6.61458 z m 53.2474,3.50573 c 3.65313,0 6.61458,2.96145 6.61458,6.61458 0,3.65313 -2.96145,6.61458 -6.61458,6.61458 -3.65313,0 -6.61458,-2.96145 -6.61458,-6.61458 0,-3.65313 2.96145,-6.61458 6.61458,-6.61458 z m -38.07778,3.37343 c 3.65313,0 6.61458,2.96145 6.61458,6.61459 0,3.65313 -2.96145,6.61458 -6.61458,6.61458 -3.65313,0 -6.61458,-2.96145 -6.61458,-6.61458 0,-3.65314 2.96145,-6.61459 6.61458,-6.61459 z m 15.1691,6.87917 c 3.65314,0 6.61459,2.96145 6.61459,6.61458 0,3.65314 -2.96145,6.61459 -6.61459,6.61459 -3.65313,0 -6.61458,-2.96145 -6.61458,-6.61459 0,-3.65313 2.96145,-6.61458 6.61458,-6.61458 z m 15.16962,6.87917 c 2.00928,0 3.80932,0.89589 5.02244,2.31001 0.99249,1.15693 1.59214,2.66072 1.59214,4.30457 0,3.65313 -2.96145,6.61458 -6.61458,6.61458 -3.65314,0 -6.61459,-2.96145 -6.61459,-6.61458 0,-3.65313 2.96145,-6.61458 6.61459,-6.61458 z"
         style="opacity:1;fill:#000000;fill-opacity:1;fill-rule:nonzero;stroke:none;stroke-width:21.05115128;stroke-linecap:round;stroke-linejoin:miter;stroke-miterlimit:4;stroke-dasharray:none;stroke-dashoffset:0;stroke-opacity:0.30166273" />
      <path
         style="opacity:1;fill:#000000;fill-opacity:1;fill-rule:nonzero;stroke:none;stroke-width:21.05115128;stroke-linecap:round;stroke-linejoin:miter;stroke-miterlimit:4;stroke-dasharray:none;stroke-dashoffset:0;stroke-opacity:0.30166273"
         d="m -485.49219,713.78049 c -5.51139,0.066 -10.74789,3.22295 -13.23898,8.57106 l -30.99346,66.54012 c -3.46586,7.44085 -0.26609,16.22131 7.17476,19.68717 l 45.01017,20.96513 c 7.44085,3.46586 16.22131,0.26609 19.68717,-7.17476 l 30.99346,-66.54012 c 3.46586,-7.44085 0.26609,-16.22131 -7.17476,-19.68717 L -479.044,715.17679 c -2.09274,-0.97477 -4.29155,-1.42214 -6.44819,-1.3963 z m -0.13642,6.98614 c 3.65313,0 6.61458,2.96145 6.61458,6.61458 0,3.65314 -2.96145,6.61459 -6.61458,6.61459 -3.65313,0 -6.61458,-2.96145 -6.61458,-6.61459 0,-3.65313 2.96145,-6.61458 6.61458,-6.61458 z m 15.16961,6.87917 c 3.65314,0 6.61459,2.96145 6.61459,6.61458 0,3.65313 -2.96145,6.61458 -6.61459,6.61458 -3.65313,0 -6.61458,-2.96145 -6.61458,-6.61458 0,-3.65313 2.96145,-6.61458 6.61458,-6.61458 z m 15.16911,6.87916 c 3.65313,0 6.61458,2.96145 6.61458,6.61459 0,3.65313 -2.96145,6.61458 -6.61458,6.61458 -3.65314,0 -6.61459,-2.96145 -6.61459,-6.61458 0,-3.65314 2.96145,-6.61459 6.61459,-6.61459 z m -38.07778,3.37344 c 3.65313,0 6.61458,2.96145 6.61458,6.61458 0,3.65314 -2.96145,6.61459 -6.61458,6.61459 -3.65314,0 -6.61459,-2.96145 -6.61459,-6.61459 0,-3.65313 2.96145,-6.61458 6.61459,-6.61458 z m 53.24739,3.50573 c 3.65314,0 6.61459,2.96145 6.61459,6.61458 0,3.65314 -2.96145,6.61459 -6.61459,6.61459 -3.65313,0 -6.61458,-2.96145 -6.61458,-6.61459 0,-3.65313 2.96145,-6.61458 6.61458,-6.61458 z m -38.07778,3.37344 c 3.65314,0 6.61459,2.96145 6.61459,6.61458 0,3.65313 -2.96145,6.61458 -6.61459,6.61458 -3.65313,0 -6.61458,-2.96145 -6.61458,-6.61458 0,-3.65313 2.96145,-6.61458 6.61458,-6.61458 z m 15.1691,6.87916 c 3.65314,0 6.61459,2.96145 6.61459,6.61459 0,3.65313 -2.96145,6.61458 -6.61459,6.61458 -3.65313,0 -6.61458,-2.96145 -6.61458,-6.61458 0,-3.65314 2.96145,-6.61459 6.61458,-6.61459 z m -38.07778,3.37344 c 3.65314,0 6.61459,2.96145 6.61459,6.61458 0,3.65314 -2.96145,6.61459 -6.61459,6.61459 -3.65313,0 -6.61458,-2.96145 -6.61458,-6.61459 0,-3.65313 2.96145,-6.61458 6.61458,-6.61458 z m 53.2474,3.50573 c 3.65313,0 6.61458,2.96145 6.61458,6.61458 0,3.65314 -2.96145,6.61459 -6.61458,6.61459 -3.65313,0 -6.61458,-2.96145 -6.61458,-6.61459 0,-3.65313 2.96145,-6.61458 6.61458,-6.61458 z m -38.07778,3.37344 c 3.65313,0 6.61458,2.96145 6.61458,6.61458 0,3.65313 -2.96145,6.61458 -6.61458,6.61458 -3.65313,0 -6.61458,-2.96145 -6.61458,-6.61458 0,-3.65313 2.96145,-6.61458 6.61458,-6.61458 z m 15.1691,6.87916 c 3.65314,0 6.61459,2.96145 6.61459,6.61459 0,3.65313 -2.96145,6.61458 -6.61459,6.61458 -3.65313,0 -6.61458,-2.96145 -6.61458,-6.61458 0,-3.65314 2.96145,-6.61459 6.61458,-6.61459 z m -38.07778,3.37344 c 3.65314,0 6.61459,2.96145 6.61459,6.61458 0,3.65314 -2.96145,6.61459 -6.61459,6.61459 -3.65313,0 -6.61458,-2.96145 -6.61458,-6.61459 0,-3.65313 2.96145,-6.61458 6.61458,-6.61458 z m 53.2474,3.50573 c 3.65313,0 6.61458,2.96145 6.61458,6.61458 0,3.65314 -2.96145,6.61459 -6.61458,6.61459 -3.65314,0 -6.61459,-2.96145 -6.61459,-6.61459 0,-3.65313 2.96145,-6.61458 6.61459,-6.61458 z m -38.07778,3.37344 c 3.65313,0 6.61458,2.96145 6.61458,6.61458 0,3.65314 -2.96145,6.61458 -6.61458,6.61458 -3.65314,0 -6.61459,-2.96144 -6.61459,-6.61458 0,-3.65313 2.96145,-6.61458 6.61459,-6.61458 z m 15.1691,6.87916 c 3.65313,0 6.61458,2.96145 6.61458,6.61459 0,3.65313 -2.96145,6.61458 -6.61458,6.61458 -3.65313,0 -6.61458,-2.96145 -6.61458,-6.61458 0,-3.65314 2.96145,-6.61459 6.61458,-6.61459 z m -38.07778,3.37344 c 3.65313,0 6.61458,2.96145 6.61458,6.61459 0,3.65313 -2.96145,6.61458 -6.61458,6.61458 -3.65313,0 -6.61458,-2.96145 -6.61458,-6.61458 0,-3.65314 2.96145,-6.61459 6.61458,-6.61459 z m 53.24739,3.50573 c 3.65314,0 6.61459,2.96145 6.61459,6.61458 0,3.65314 -2.96145,6.61459 -6.61459,6.61459 -3.65313,0 -6.61458,-2.96145 -6.61458,-6.61459 0,-3.65313 2.96145,-6.61458 6.61458,-6.61458 z m -38.07778,3.37344 c 3.65314,0 6.61459,2.96145 6.61459,6.61458 0,3.65314 -2.96145,6.61459 -6.61459,6.61459 -3.65313,0 -6.61458,-2.96145 -6.61458,-6.61459 0,-3.65313 2.96145,-6.61458 6.61458,-6.61458 z m 15.16911,6.87917 c 3.65313,0 6.61458,2.96144 6.61458,6.61458 0,3.65313 -2.96145,6.61458 -6.61458,6.61458 -3.65314,0 -6.61459,-2.96145 -6.61459,-6.61458 0,-3.65314 2.96145,-6.61458 6.61459,-6.61458 z m 15.16961,6.87916 c 2.00929,0 3.80933,0.8959 5.02245,2.31002 0.99249,1.15693 1.59214,2.66072 1.59214,4.30457 0,3.65313 -2.96145,6.61458 -6.61459,6.61458 -3.65313,0 -6.61458,-2.96145 -6.61458,-6.61458 0,-3.65314 2.96145,-6.61459 6.61458,-6.61459 z"
         id="path4629"
         inkscape:connector-curvature="0"
         sodipodi:nodetypes="sccccccccssssssssssssssssssssssssssssssssssssssssssssssssssssssssssssssssssssssssssssssssssssssssssssssssssssss" />
      <path
         sodipodi:nodetypes="cccccccccccccccccccc"
         inkscape:connector-curvature="0"
         id="path4635"
         d="m -441.17861,776.32913 -32.38877,-13.66754 -8.73125,15.08125 14.92627,10.22796 -8.73125,16.40416 -24.32275,-12.6812 -15.89488,15.36542 -11.30518,-8.57115 6.80823,-13.79981 15.87499,6.19299 16.07577,-35.43199 0.63609,-1.15706 5.68102,-13.39731 -15.22797,-9.26386 11.61932,-15.91551 10.89104,6.28212 -4.74551,17.06205 13.40543,9.02498 32.57315,15.27992 c -14.21956,25.36741 -7.14375,12.96458 -7.14375,12.96458 z"
         style="fill:#000000;fill-opacity:1;fill-rule:evenodd;stroke:#000000;stroke-width:0.23390169px;stroke-linecap:butt;stroke-linejoin:miter;stroke-opacity:1" />
    </g>
    <text
       xml:space="preserve"
       style="font-style:normal;font-variant:normal;font-weight:500;font-stretch:normal;font-size:14.11111069px;line-height:15px;font-family:Ubuntu;-inkscape-font-specification:'Ubuntu Medium';text-align:start;text-anchor:start;opacity:1;fill:#010101;fill-opacity:1;fill-rule:nonzero;stroke:none;stroke-width:1.58749998;stroke-linecap:round;stroke-linejoin:miter;stroke-miterlimit:4;stroke-dasharray:none;stroke-dashoffset:0;stroke-opacity:0.30166273"
       x="1243.925"
       y="-465.63968"
       id="text51617"><tspan
         sodipodi:role="line"
         x="1243.925"
         y="-453.80063"
         style="stroke-width:1.58749998"
         id="tspan51619" /></text>
  </g>
</svg>
