<?xml version="1.0" encoding="UTF-8" standalone="no"?>
<!-- Created with Inkscape (http://www.inkscape.org/) -->

<svg
   xmlns:dc="http://purl.org/dc/elements/1.1/"
   xmlns:cc="http://creativecommons.org/ns#"
   xmlns:rdf="http://www.w3.org/1999/02/22-rdf-syntax-ns#"
   xmlns:svg="http://www.w3.org/2000/svg"
   xmlns="http://www.w3.org/2000/svg"
   xmlns:xlink="http://www.w3.org/1999/xlink"
   xmlns:sodipodi="http://sodipodi.sourceforge.net/DTD/sodipodi-0.dtd"
   xmlns:inkscape="http://www.inkscape.org/namespaces/inkscape"
   width="600"
   height="720"
   viewBox="0 0 158.75 190.5"
   version="1.1"
   id="svg8"
   inkscape:version="0.92.1 unknown"
   sodipodi:docname="pokal_silber.svg"
   inkscape:export-filename="play.png"
   inkscape:export-xdpi="87.272728"
   inkscape:export-ydpi="87.272728">
  <defs
     id="defs2">
    <linearGradient
       id="linearGradient51933"
       inkscape:collect="always">
      <stop
         id="stop51929"
         offset="0"
         style="stop-color:#a3a3a3;stop-opacity:1" />
      <stop
         id="stop51931"
         offset="1"
         style="stop-color:#f0f0f0;stop-opacity:1" />
    </linearGradient>
    <linearGradient
       id="linearGradient52095"
       inkscape:collect="always">
      <stop
         id="stop52091"
         offset="0"
         style="stop-color:#2d2d2d;stop-opacity:1" />
      <stop
         id="stop52093"
         offset="1"
         style="stop-color:#a3a3a3;stop-opacity:1" />
    </linearGradient>
    <linearGradient
       inkscape:collect="always"
       xlink:href="#linearGradient51933"
       id="linearGradient4721"
       x1="278.83688"
       y1="524.75067"
       x2="278.83688"
       y2="-173.3289"
       gradientUnits="userSpaceOnUse"
       gradientTransform="matrix(0.26458333,0,0,0.26458333,6.6145842,156.77084)" />
    <linearGradient
       inkscape:collect="always"
       xlink:href="#linearGradient52095"
       id="linearGradient4730"
       x1="275"
       y1="499.72144"
       x2="275"
       y2="-150"
       gradientUnits="userSpaceOnUse"
       gradientTransform="matrix(0.26458333,0,0,0.26458333,6.6145842,156.77084)" />
  </defs>
  <sodipodi:namedview
     id="base"
     pagecolor="#ffffff"
     bordercolor="#666666"
     borderopacity="1.0"
     inkscape:pageopacity="0.0"
     inkscape:pageshadow="2"
     inkscape:zoom="0.35167911"
     inkscape:cx="-109.80172"
     inkscape:cy="73.333096"
     inkscape:document-units="px"
     inkscape:current-layer="layer1"
     showgrid="false"
     inkscape:window-width="1539"
     inkscape:window-height="876"
     inkscape:window-x="61"
     inkscape:window-y="24"
     inkscape:window-maximized="1"
     units="px" />
  <metadata
     id="metadata5">
    <rdf:RDF>
      <cc:Work
         rdf:about="">
        <dc:format>image/svg+xml</dc:format>
        <dc:type
           rdf:resource="http://purl.org/dc/dcmitype/StillImage" />
        <dc:title></dc:title>
      </cc:Work>
    </rdf:RDF>
  </metadata>
  <g
     inkscape:label="Ebene 1"
     inkscape:groupmode="layer"
     id="layer1"
     transform="translate(0,-106.5)">
    <path
       style="opacity:1;fill:none;fill-opacity:1;fill-rule:nonzero;stroke:url(#linearGradient4721);stroke-width:10.58333302;stroke-linecap:round;stroke-linejoin:miter;stroke-miterlimit:4;stroke-dasharray:none;stroke-dashoffset:0;stroke-opacity:1"
       d="m 79.375,117.08334 a 39.687505,13.229166 0 0 0 -39.6875,13.22917 v 2.06705 c -3.029264,-0.62845 -6.715267,-1.17346 -10.457759,-1.18235 -9.500763,-0.0226 -19.3078651,3.40165 -19.3078651,17.63613 0,23.36958 26.4279081,36.55826 34.5415601,40.05698 2.932557,5.4082 7.085788,10.05744 12.089185,13.58057 17.323057,13.86872 15.391556,25.75314 15.097268,44.88202 -0.117922,7.66514 -12.579334,15.17994 -20.651967,19.2505 a 39.687505,13.229166 0 0 0 -11.310422,9.22993 39.687505,13.229166 0 0 0 39.6875,13.22916 39.687505,13.229166 0 0 0 39.6875,-13.22916 39.687505,13.229166 0 0 0 -11.39155,-9.27127 c -8.074748,-4.07988 -20.453311,-11.56959 -20.570839,-19.20916 -0.294288,-19.12888 -2.225789,-31.0133 15.097269,-44.88202 5.0034,-3.52313 9.15663,-8.17237 12.08918,-13.58057 8.11366,-3.49872 34.54156,-16.6874 34.54156,-40.05698 0,-14.23448 -9.8071,-17.6587 -19.30786,-17.63613 -3.74249,0.009 -7.4285,0.5539 -10.45776,1.18235 v -2.06705 A 39.687505,13.229166 0 0 0 79.375,117.08334 Z m -49.590254,22.27461 c 3.316212,0.0298 6.887087,0.79393 9.902754,1.65985 v 28.98221 c 0,2.59035 0.251172,5.12175 0.72502,7.57369 -8.160623,-4.44865 -21.230228,-13.89133 -21.230228,-28.74036 0,-7.42453 4.917106,-9.52657 10.602454,-9.47539 z m 99.180504,0 c 5.68535,-0.0512 10.60246,2.05086 10.60246,9.47539 0,14.84903 -13.06961,24.29171 -21.23023,28.74036 0.47385,-2.45194 0.72502,-4.98334 0.72502,-7.57369 V 141.0178 c 3.01567,-0.86592 6.58654,-1.63 9.90275,-1.65985 z"
       id="ellipse4704"
       inkscape:connector-curvature="0" />
    <path
       style="opacity:1;fill:url(#linearGradient4730);fill-opacity:1;fill-rule:nonzero;stroke:none;stroke-width:10.58333302;stroke-linecap:round;stroke-linejoin:miter;stroke-miterlimit:4;stroke-dasharray:none;stroke-dashoffset:0;stroke-opacity:1"
       d="m 79.375,117.08334 a 39.687505,13.229166 0 0 0 -39.6875,13.22917 v 2.06705 c -3.029264,-0.62845 -6.715267,-1.17346 -10.457759,-1.18235 -9.500763,-0.0226 -19.3078651,3.40165 -19.3078651,17.63613 0,23.36958 26.4279081,36.55826 34.5415601,40.05698 2.932557,5.4082 7.085788,10.05744 12.089185,13.58057 17.323057,13.86872 15.391556,25.75314 15.097268,44.88202 -0.117922,7.66514 -12.579334,15.17994 -20.651967,19.2505 a 39.687505,13.229166 0 0 0 -11.310422,9.22993 39.687505,13.229166 0 0 0 39.6875,13.22916 39.687505,13.229166 0 0 0 39.6875,-13.22916 39.687505,13.229166 0 0 0 -11.39155,-9.27127 c -8.074748,-4.07988 -20.453311,-11.56959 -20.570839,-19.20916 -0.294288,-19.12888 -2.225789,-31.0133 15.097269,-44.88202 5.0034,-3.52313 9.15663,-8.17237 12.08918,-13.58057 8.11366,-3.49872 34.54156,-16.6874 34.54156,-40.05698 0,-14.23448 -9.8071,-17.6587 -19.30786,-17.63613 -3.74249,0.009 -7.4285,0.5539 -10.45776,1.18235 v -2.06705 A 39.687505,13.229166 0 0 0 79.375,117.08334 Z m -49.590254,22.27461 c 3.316212,0.0298 6.887087,0.79393 9.902754,1.65985 v 28.98221 c 0,2.59035 0.251172,5.12175 0.72502,7.57369 -8.160623,-4.44865 -21.230228,-13.89133 -21.230228,-28.74036 0,-7.42453 4.917106,-9.52657 10.602454,-9.47539 z m 99.180504,0 c 5.68535,-0.0512 10.60246,2.05086 10.60246,9.47539 0,14.84903 -13.06961,24.29171 -21.23023,28.74036 0.47385,-2.45194 0.72502,-4.98334 0.72502,-7.57369 V 141.0178 c 3.01567,-0.86592 6.58654,-1.63 9.90275,-1.65985 z"
       id="path4494"
       inkscape:connector-curvature="0" />
  </g>
</svg>
